HIERARCHY
ROOT SpineBase
{
  OFFSET 0.000000 0.000000 0.000000
  CHANNELS 6 Xposition Yposition Zposition Zrotation Xrotation Yrotation
  JOINT SpineMid
  {
    OFFSET 0.000000 32.852247 0.000000
    CHANNELS 3 Zrotation Xrotation Yrotation
    JOINT SpineShoulder
    {
      OFFSET -0.060787 24.181492 -1.910682
      CHANNELS 3 Zrotation Xrotation Yrotation
      JOINT Neck
      {
        OFFSET -0.057960 7.908280 -1.564696
        CHANNELS 3 Zrotation Xrotation Yrotation
        JOINT Head
        {
          OFFSET 6.242395 10.129504 3.843743
          CHANNELS 3 Zrotation Xrotation Yrotation
          End Site
          {
            OFFSET 0 0 0
          }
        }
      }
      JOINT ShoulderLeft
      {
        OFFSET -3.242469 -3.576833 -14.047312
        CHANNELS 3 Zrotation Xrotation Yrotation
        JOINT ElbowLeft
        {
          OFFSET 0.685764 -25.830683 -4.917408
          CHANNELS 3 Zrotation Xrotation Yrotation
          JOINT WristLeft
          {
            OFFSET 5.599447 -20.534529 0.917814
            CHANNELS 3 Zrotation Xrotation Yrotation
            JOINT HandLeft
            {
              OFFSET -0.527369 -7.789618 3.421222
              CHANNELS 3 Zrotation Xrotation Yrotation
              JOINT HandTipLeft
              {
                OFFSET 1.706645 -7.758114 1.528333
                CHANNELS 3 Zrotation Xrotation Yrotation
                End Site
                {
                  OFFSET 0 0 0
                }
              }
              JOINT ThumbLeft
              {
                OFFSET 4.225436 3.343350 3.999178
                CHANNELS 3 Zrotation Xrotation Yrotation
                End Site
                {
                  OFFSET 0 0 0
                }
              }
            }
          }
        }
      }
      JOINT ShoulderRight
      {
        OFFSET 2.709132 -4.840645 15.296499
        CHANNELS 3 Zrotation Xrotation Yrotation
        JOINT ElbowRight
        {
          OFFSET -3.260940 -7.681437 -26.647905
          CHANNELS 3 Zrotation Xrotation Yrotation
          JOINT WristRight
          {
            OFFSET -4.554729 11.076956 -16.585443
            CHANNELS 3 Zrotation Xrotation Yrotation
            JOINT HandRight
            {
              OFFSET -1.617578 3.620581 -5.104699
              CHANNELS 3 Zrotation Xrotation Yrotation
              JOINT HandTipRight
              {
                OFFSET -3.422959 1.244189 0.868534
                CHANNELS 3 Zrotation Xrotation Yrotation
                End Site
                {
                  OFFSET 0 0 0
                }
              }
              JOINT ThumbRight
              {
                OFFSET 1.569589 3.993042 4.600575
                CHANNELS 3 Zrotation Xrotation Yrotation
                End Site
                {
                  OFFSET 0 0 0
                }
              }
            }
          }
        }
      }
    }
  }
  JOINT HipLeft
  {
    OFFSET -0.443346 2.013264 -10.245262
    CHANNELS 3 Zrotation Xrotation Yrotation
    JOINT KneeLeft
    {
      OFFSET -4.725998 -35.329398 3.800418
      CHANNELS 3 Zrotation Xrotation Yrotation
      JOINT AnkleLeft
      {
        OFFSET -9.370085 -32.638720 3.503843
        CHANNELS 3 Zrotation Xrotation Yrotation
        JOINT FootLeft
        {
          OFFSET 3.043900 -6.384191 3.436786
          CHANNELS 3 Zrotation Xrotation Yrotation
          End Site
          {
            OFFSET 0 0 0
          }
        }
      }
    }
  }
  JOINT HipRight
  {
    OFFSET 2.094069 0.454877 2.933607
    CHANNELS 3 Zrotation Xrotation Yrotation
    JOINT KneeRight
    {
      OFFSET 2.279254 -31.761450 13.647000
      CHANNELS 3 Zrotation Xrotation Yrotation
      JOINT AnkleRight
      {
        OFFSET -11.892415 -36.631282 -3.584126
        CHANNELS 3 Zrotation Xrotation Yrotation
        JOINT FootRight
        {
          OFFSET 7.358004 -4.147605 -2.894979
          CHANNELS 3 Zrotation Xrotation Yrotation
          End Site
          {
            OFFSET 0 0 0
          }
        }
      }
    }
  }
}
MOTION
Frames: 13
Frame Time: 0.033333
-68.238269 73.103642 312.150630 -0.000000 0.000000 -79.101823 -0.000000 0.000000 79.101823 -0.000000 0.000000 0.000000 -0.000000 0.000000 0.000000 0.000000 0.000000 0.000000 -0.000000 0.000000 0.000000 -0.000000 0.000000 0.000000 -0.000000 0.000000 0.000000 -0.000000 0.000000 0.000000 0.000000 0.000000 0.000000 0.000000 0.000000 0.000000 -0.000000 0.000000 0.000000 -0.000000 0.000000 0.000000 -0.000000 0.000000 0.000000 -0.000000 0.000000 0.000000 0.000000 0.000000 0.000000 0.000000 0.000000 0.000000 -0.000000 0.000000 79.101823 -0.000000 0.000000 0.000000 -0.000000 0.000000 0.000000 0.000000 0.000000 0.000000 -0.000000 0.000000 79.101823 -0.000000 0.000000 0.000000 -0.000000 0.000000 0.000000 0.000000 0.000000 0.000000
-68.226744 73.102989 312.176112 0.046256 -0.371813 -78.779486 -0.373707 0.026977 78.779724 -0.000000 0.000000 0.000000 -0.000000 0.000000 0.000000 0.000000 0.000000 0.000000 -0.000000 0.000000 0.000000 -0.000000 0.000000 0.000000 0.276224 1.331760 0.028090 -1.442100 -2.324227 -0.519772 0.000000 0.000000 0.000000 0.000000 0.000000 0.000000 -0.000000 0.000000 0.000000 -0.000000 0.000000 0.000000 -0.000000 0.000000 0.000000 -0.000000 0.000000 0.000000 0.000000 0.000000 0.000000 0.000000 0.000000 0.000000 -0.373707 0.026977 78.779724 -0.000000 0.000000 0.000000 -0.000000 0.000000 0.000000 0.000000 0.000000 0.000000 -0.373707 0.026977 78.779724 -0.000000 0.000000 0.000000 -1.913045 -0.165794 1.071296 0.000000 0.000000 0.000000
-68.216952 73.126096 312.199403 0.086202 -0.704328 -78.522138 -0.707396 0.055672 78.523012 -0.157954 1.482535 -0.018389 0.158482 -1.482478 0.022484 0.000000 0.000000 0.000000 0.158482 -1.482478 0.022484 -0.000000 0.000000 0.000000 0.520864 2.389053 0.056676 -2.724812 -4.165999 -1.029651 0.000000 0.000000 0.000000 0.000000 0.000000 0.000000 0.158482 -1.482478 0.022484 -0.000000 0.000000 0.000000 -0.000000 0.000000 0.000000 -0.000000 0.000000 0.000000 0.000000 0.000000 0.000000 0.000000 0.000000 0.000000 -0.707396 0.055672 78.523012 -0.000000 0.000000 0.000000 -0.376264 -1.066115 -0.711919 0.000000 0.000000 0.000000 -0.707396 0.055672 78.523012 0.071281 -1.018984 0.324831 -3.413587 0.692211 1.549299 0.000000 0.000000 0.000000
-68.208892 73.172962 312.220502 0.119882 -0.997942 -78.330731 -1.001564 0.084431 78.332514 -0.232537 2.078344 -0.026653 0.233658 -2.078219 0.035109 0.000000 0.000000 0.000000 0.233658 -2.078219 0.035109 -0.000000 0.000000 0.000000 0.731749 3.158412 0.088442 -3.839292 -5.514276 -1.494649 0.000000 0.000000 0.000000 0.000000 0.000000 0.000000 0.233658 -2.078219 0.035109 -0.000000 0.000000 0.000000 -0.000000 0.000000 0.000000 -0.000000 0.000000 0.000000 0.000000 0.000000 0.000000 0.000000 0.000000 0.000000 -1.001564 0.084431 78.332514 -0.000000 0.000000 0.000000 -0.644462 -1.272057 -0.957438 0.000000 0.000000 0.000000 -1.001564 0.084431 78.332514 0.085436 -1.377856 0.440636 -4.345703 0.896625 1.872096 0.000000 0.000000 0.000000
-68.202565 73.243589 312.239409 0.147320 -1.252940 -78.206256 -1.256602 0.111857 78.209093 -0.304194 2.576667 -0.034612 0.306059 -2.576446 0.048336 0.000000 0.000000 0.000000 0.306059 -2.576446 0.048336 -0.000000 0.000000 0.000000 0.907137 3.630020 0.125655 -4.776993 -6.364675 -1.885445 0.000000 0.000000 0.000000 0.000000 0.000000 0.000000 0.306059 -2.576446 0.048336 -0.000000 0.000000 0.000000 -0.000000 0.000000 0.000000 -0.000000 0.000000 0.000000 0.000000 0.000000 0.000000 0.000000 0.000000 0.000000 -1.256602 0.111857 78.209093 -0.000000 0.000000 0.000000 -0.962950 -1.275939 -1.135200 0.000000 0.000000 0.000000 -1.256602 0.111857 78.209093 0.083233 -1.625232 0.521550 -4.730641 1.013944 1.859224 0.000000 0.000000 0.000000
-68.197971 73.337975 312.256125 0.168519 -1.469496 -78.149728 -1.472786 0.136807 78.153648 -0.372927 2.977265 -0.042489 1.256702 -2.835827 -0.315322 0.000000 0.000000 0.000000 0.375641 -2.976924 0.061941 -0.000000 0.000000 0.000000 1.045753 3.797398 0.170039 -5.531205 -6.717970 -2.179412 0.000000 0.000000 0.000000 0.000000 0.000000 0.000000 0.375641 -2.976924 0.061941 -0.000000 0.000000 0.000000 -0.000000 0.000000 0.000000 -0.000000 0.000000 0.000000 0.000000 0.000000 0.000000 0.000000 0.000000 0.000000 -1.472786 0.136807 78.153648 -0.000000 0.000000 0.000000 -1.331433 -1.085257 -1.247343 0.000000 0.000000 0.000000 -1.472786 0.136807 78.153648 0.063712 -1.755197 0.565560 -4.559589 1.041859 1.500339 0.000000 0.000000 0.000000
-68.215757 73.376336 312.221426 0.152538 -1.560191 -78.336725 -1.558819 0.165980 78.341060 -0.452961 3.220477 -0.053578 1.748989 -3.166058 -0.373706 0.000000 0.000000 0.000000 0.456692 -3.219951 0.079148 -0.000000 0.000000 0.000000 1.275185 3.708815 0.271687 -6.867053 -6.493909 -2.575902 0.000000 0.000000 0.000000 0.000000 0.000000 0.000000 0.456692 -3.219951 0.079148 -0.000000 0.000000 0.000000 -0.000000 0.000000 0.000000 -0.000000 0.000000 0.000000 0.000000 0.000000 0.000000 0.000000 0.000000 0.000000 -1.558819 0.165980 78.341060 -0.000000 0.000000 0.000000 -2.463440 0.237023 -1.222079 0.000000 0.000000 0.000000 -2.399206 0.018215 78.263934 0.165038 -2.096532 0.515291 1.820928 3.568950 2.281081 0.000000 0.000000 0.000000
-68.215647 73.528624 312.235319 0.160553 -1.699163 -78.428906 -1.696841 0.183484 78.434004 -0.519268 3.429655 -0.062423 2.196626 -3.446047 -0.432188 0.000000 0.000000 0.000000 0.523940 -3.428945 0.093652 -0.000000 0.000000 0.000000 1.333955 3.076987 0.346061 -7.729611 -5.259667 -2.643209 0.000000 0.000000 0.000000 0.000000 0.000000 0.000000 0.523940 -3.428945 0.093652 -0.000000 0.000000 0.000000 -0.000000 0.000000 0.000000 -0.000000 0.000000 0.000000 0.000000 0.000000 0.000000 0.000000 0.000000 0.000000 -1.696841 0.183484 78.434004 -0.000000 0.000000 0.000000 -3.256922 1.434080 -1.050492 0.000000 0.000000 0.000000 -2.466073 -0.060770 78.315967 0.142626 -1.641140 0.445165 7.546545 5.074229 1.395556 0.000000 0.000000 0.000000
-68.198328 73.730751 312.265853 0.188209 -1.834807 -78.457718 -1.835367 0.182661 78.463658 -0.568802 3.549370 -0.069323 2.537962 -3.593682 -0.493044 0.000000 0.000000 0.000000 0.574195 -3.548503 0.104734 -0.000000 0.000000 0.000000 1.332482 2.702895 0.374975 -7.465653 -4.435506 -2.429963 0.000000 0.000000 0.000000 0.000000 0.000000 0.000000 0.574195 -3.548503 0.104734 -0.000000 0.000000 0.000000 -0.000000 0.000000 0.000000 -0.000000 0.000000 0.000000 0.000000 0.000000 0.000000 0.000000 0.000000 0.000000 -1.835367 0.182661 78.463658 -0.000000 0.000000 0.000000 -3.304263 1.215600 -1.187676 0.000000 0.000000 0.000000 -3.274510 -0.216958 78.265706 0.465044 -2.388409 0.564324 2.256799 1.610414 -0.809947 0.000000 0.000000 0.000000
-68.156702 73.992466 312.319844 0.242394 -1.975984 -78.526478 -1.984716 0.155422 78.533350 -0.600887 3.584167 -0.074275 2.709314 -3.599013 -0.547797 0.000000 0.000000 0.000000 0.606715 -3.583186 0.112053 -0.000000 0.000000 0.000000 1.375763 2.059304 0.443971 -6.966444 -3.556225 -2.217413 0.000000 0.000000 0.000000 0.000000 0.000000 0.000000 0.606715 -3.583186 0.112053 -0.000000 0.000000 0.000000 -0.000000 0.000000 0.000000 -0.000000 0.000000 0.000000 0.000000 0.000000 0.000000 0.000000 0.000000 0.000000 -2.810905 0.158266 78.409783 0.163231 -0.809907 0.126983 -5.396594 5.160461 -0.211699 0.000000 0.000000 0.000000 -3.966834 -0.149970 78.369350 0.580941 -3.424865 0.684104 -5.050004 -3.113868 -5.923548 0.000000 0.000000 0.000000
-68.123128 74.201934 312.363084 0.286771 -2.088266 -78.448593 -2.103394 0.137109 78.456337 -0.632502 3.595613 -0.079428 2.826355 -3.535914 -0.615068 0.000000 0.000000 0.000000 0.638739 -3.594512 0.119324 -0.000000 0.000000 0.000000 1.156628 1.713893 0.377404 -5.857317 -3.370312 -1.923553 0.000000 0.000000 0.000000 0.000000 0.000000 0.000000 0.638739 -3.594512 0.119324 -0.000000 0.000000 0.000000 -0.000000 0.000000 0.000000 -0.000000 0.000000 0.000000 0.000000 0.000000 0.000000 0.000000 0.000000 0.000000 -3.191799 0.169011 78.295542 0.189609 -1.072235 0.165477 -6.460797 7.325422 0.457830 0.000000 0.000000 0.000000 -4.279833 -0.198194 78.273585 0.784375 -3.824546 0.768306 -4.368152 -3.257145 -7.237173 0.000000 0.000000 0.000000
-68.085893 74.342345 312.385939 0.335028 -2.170504 -78.360743 -2.193459 0.109648 78.369189 -0.654632 3.622374 -0.082787 2.713404 -3.418634 -0.657289 0.000000 0.000000 0.000000 -0.112514 -3.419254 0.229201 0.771340 -0.205330 -0.150936 1.235708 1.608869 0.419357 -5.734089 -2.615059 -1.741140 0.000000 0.000000 0.000000 0.000000 0.000000 0.000000 0.661182 -3.621186 0.124389 -0.000000 0.000000 0.000000 -0.000000 0.000000 0.000000 -0.000000 0.000000 0.000000 0.000000 0.000000 0.000000 0.000000 0.000000 0.000000 -3.381485 0.142572 78.192805 0.210921 -1.169616 0.181152 -7.594249 8.964340 0.847367 0.000000 0.000000 0.000000 -4.531698 -0.037133 78.267671 0.930727 -4.701479 0.899611 -8.034877 -3.121964 -6.350540 0.000000 0.000000 0.000000
-68.057606 74.365222 312.379108 0.368771 -2.203403 -78.276024 -2.232359 0.086530 78.284801 -0.668346 3.660252 -0.084585 2.668977 -3.410588 -0.663163 0.000000 0.000000 0.000000 -0.149933 -3.393293 0.240494 0.137971 0.209050 -0.062654 1.759322 1.255710 0.251791 -5.587309 -1.823818 -1.435411 0.000000 0.000000 0.000000 0.000000 0.000000 0.000000 0.675122 -3.659010 0.127505 -0.000000 0.000000 0.000000 -0.000000 0.000000 0.000000 -0.000000 0.000000 0.000000 0.000000 0.000000 0.000000 0.000000 0.000000 0.000000 -3.366030 0.102286 78.114507 0.218114 -1.112603 0.174280 -8.182228 9.939508 1.143970 0.000000 0.000000 0.000000 -4.662157 -0.016128 78.199567 1.008544 -5.209724 1.016205 -7.221843 -2.253406 -6.070713 0.000000 0.000000 0.000000
